<svg xmlns="http://www.w3.org/2000/svg" id="a" width="364.73" height="109.21" viewBox="0 0 364.73 109.21"><g><path d="M137.84,89.98h3.41l3.86,14.04h-1.54l-1.01-3.61h-6.01l-1.01,3.61h-1.54l3.86-14.04Zm-.95,9.03h5.32l-2.13-7.69h-1.05l-2.13,7.69Z" fill="#fff"></path><path d="M160.06,91.49s-2.82-.34-4-.34c-1.99,0-3.04,.71-3.04,2.29,0,1.83,.97,2.13,3.43,2.68,2.8,.63,4.04,1.32,4.04,3.78,0,3.1-1.7,4.32-4.48,4.32-1.67,0-4.45-.45-4.45-.45l.16-1.3s2.76,.37,4.2,.37c1.99,0,3-.87,3-2.82,0-1.58-.83-2.03-3.12-2.48-2.9-.63-4.36-1.32-4.36-4s1.79-3.77,4.53-3.77c1.66,0,4.24,.41,4.24,.41l-.14,1.32Z" fill="#fff"></path><path d="M163.38,89.98h8.54v1.38h-6.98v4.85h5.76v1.36h-5.76v5.07h6.98v1.38h-8.54v-14.04Z" fill="#fff"></path><path d="M174.8,89.98h2.82l3.98,11.87,3.98-11.87h2.82v14.04h-1.56v-12.38h-.28l-4.08,11.87h-1.75l-4.08-11.87h-.28v12.38h-1.56v-14.04Z" fill="#fff"></path><path d="M190.59,89.98h10.15v1.4h-4.28v12.64h-1.54v-12.64h-4.32v-1.4Z" fill="#fff"></path><path d="M202.92,89.98h8.54v1.38h-6.98v4.85h5.76v1.36h-5.76v5.07h6.98v1.38h-8.54v-14.04Z" fill="#fff"></path><path d="M222.66,103.8c-.99,.2-2.54,.43-3.88,.43-4.2,0-5.13-2.56-5.13-7.18s.91-7.26,5.13-7.26c1.44,0,2.98,.26,3.88,.45l-.06,1.32c-.91-.16-2.56-.37-3.65-.37-3.12,0-3.67,1.87-3.67,5.87s.51,5.78,3.71,5.78c1.14,0,2.64-.18,3.61-.37l.06,1.34Z" fill="#fff"></path><path d="M234.12,97.67h-7.14v6.35h-1.56v-14.04h1.56v6.29h7.14v-6.29h1.54v14.04h-1.54v-6.35Z" fill="#fff"></path><path d="M252.46,103.8c-1,.2-2.54,.43-3.88,.43-4.2,0-5.13-2.56-5.13-7.18s.91-7.26,5.13-7.26c1.44,0,2.98,.26,3.88,.45l-.06,1.32c-.91-.16-2.56-.37-3.65-.37-3.13,0-3.67,1.87-3.67,5.87s.51,5.78,3.71,5.78c1.14,0,2.64-.18,3.61-.37l.06,1.34Z" fill="#fff"></path><path d="M254.43,97.07c0-4.63,1.2-7.29,5.54-7.29s5.56,2.62,5.56,7.29-1.2,7.16-5.56,7.16-5.54-2.46-5.54-7.16Zm9.48,0c0-3.79-.73-5.91-3.94-5.91s-3.94,2.09-3.94,5.91,.69,5.78,3.94,5.78,3.94-1.83,3.94-5.78Z" fill="#fff"></path><path d="M268.59,89.98h2.82l3.98,11.87,3.98-11.87h2.82v14.04h-1.56v-12.38h-.28l-4.08,11.87h-1.75l-4.08-11.87h-.28v12.38h-1.56v-14.04Z" fill="#fff"></path><path d="M287.39,99.3v4.73h-1.56v-14.04h5.13c3.06,0,4.49,1.48,4.49,4.53s-1.42,4.79-4.49,4.79h-3.57Zm3.55-1.38c2.05,0,2.9-1.24,2.9-3.41s-.85-3.15-2.9-3.15h-3.55v6.56h3.55Z" fill="#fff"></path><path d="M300.05,89.98h3.41l3.86,14.04h-1.54l-1.01-3.61h-6.01l-1.01,3.61h-1.54l3.86-14.04Zm-.95,9.03h5.32l-2.13-7.69h-1.06l-2.13,7.69Z" fill="#fff"></path><path d="M309.73,89.98h2.92l5.38,12.66h.43v-12.66h1.54v14.04h-2.86l-5.46-12.66h-.39v12.66h-1.56v-14.04Z" fill="#fff"></path><path d="M328.17,104.03h-1.56v-5.91l-4.48-8.14h1.77l3.49,6.58,3.49-6.58h1.77l-4.46,8.14v5.91Z" fill="#fff"></path></g><g><path d="M147.3,49.9h0l-5,14.8h-2.9l-5.9-17.9h2.9l4.6,14.5h0l4.8-14.5h3.2l4.9,14.5h.1l4.6-14.5h2.8l-6.1,17.9h-2.9l-5.1-14.8Z" fill="#fff"></path><path d="M169.2,46.8h2.7v17.9h-2.7v-17.9Z" fill="#fff"></path><path d="M182.1,46.8h11.1c3.6,0,4.9,2.5,4.9,4.8s-1.1,3.8-3,4.4v.1c1.6,.2,2.5,1.7,2.6,3.8,.2,3.3,.3,4.2,.9,4.9h-2.8c-.4-.5-.4-1.2-.5-3.4-.2-3.2-1.2-4.2-3.4-4.2h-6.9v7.6h-2.7v-18h-.2Zm10,8c2.6,0,3.2-1.6,3.2-2.8,0-1.7-1-2.9-3.2-2.9h-7.5v5.7s7.5,0,7.5,0Z" fill="#fff"></path><path d="M207,46.8h14.4v2.3h-11.7v5.2h11.3v2.3h-11.4v5.8h12v2.3h-14.6v-17.9Z" fill="#fff"></path><path d="M230.7,46.8h2.6v15.6h10.9v2.3h-13.5v-17.9Z" fill="#fff"></path><path d="M252.3,46.8h14.4v2.3h-11.7v5.2h11.4v2.3h-11.4v5.8h12v2.3h-14.6v-17.9h-.1Z" fill="#fff"></path><path d="M277.1,58.8c0,3.2,3.1,4,5.8,4s4.8-1.1,4.8-3c0-1.6-1.3-2.3-3.3-2.7l-4.1-.7c-2.1-.4-5.3-1.2-5.3-4.7,0-3.2,2.6-5.4,7.2-5.4,3.6,0,7.4,1.3,7.6,5.6h-2.7c-.2-1.4-1-3.3-5.3-3.3-2,0-4.2,.8-4.2,2.9,0,1.1,.7,2,2.9,2.4l4.4,.7c1.4,.3,5.4,.9,5.4,4.6,0,4.6-4.1,5.9-7.7,5.9-4,0-8.2-1.4-8.2-6.3h2.7Z" fill="#fff"></path><path d="M299.8,58.8c.1,3.2,3.1,4,5.8,4s4.8-1.1,4.8-3c0-1.6-1.3-2.3-3.3-2.7l-4-.7c-2.1-.4-5.3-1.2-5.3-4.7,0-3.2,2.6-5.4,7.2-5.4,3.6,0,7.4,1.3,7.6,5.6h-2.7c-.2-1.4-1-3.3-5.3-3.3-2,0-4.1,.8-4.1,2.9,0,1.1,.7,2,2.9,2.4l4.4,.7c1.4,.3,5.4,.9,5.4,4.6,0,4.6-4.1,5.9-7.7,5.9-4,0-8.2-1.4-8.2-6.3h2.5Z" fill="#fff"></path></g><g><path d="M139,7.6c4.3,0,13,.8,13.7,8.9h-6.4c-.2-2.2-2.2-4.5-7.1-4.5-3.9,0-6.5,1.2-6.5,3.9,0,6.6,20.9,.3,20.9,12.3,0,7.2-7.5,9.1-13.5,9.1-10.1,0-14.2-4-14.3-9.9h6.4c.2,3.7,3.2,5.5,8.1,5.5,3.6,0,6.9-1.1,6.9-4.1,0-7-20.7-.9-20.7-12.4,.1-6.4,5.7-8.8,12.5-8.8Z" fill="#fff"></path><path d="M164.2,8.4v25.6c0,1.6,1.3,2.9,3,2.9,1.6,0,2.9-1.3,2.9-2.9V8.4h-5.9Z" fill="#fff"></path><path d="M203.3,19.8c1.2,0,2.2,1,2.2,2.2s-1,2.2-2.2,2.2h-15v7.8h18.8v4.4h-24.7V8.4h24.4v4.4h-18.5v7.1h14.8l.2-.1Z" fill="#fff"></path><path d="M310.6,8.4h-6.9l-10.7,24.1c-.2,.5-.4,.9-.4,1.4,0,1.7,1.2,3,2.9,3,1.3,0,2.4-.9,2.8-2.1l.1-.2,2.2-5.1h13.2l2.9,7h6.4l-12.5-28.1Zm-8.3,16.7l4.8-11.9,4.9,11.9h-9.7Z" fill="#fff"></path><path d="M283.7,30.4c0-4-.7-6.9-4.1-7.6v-.1c2.6-.8,4.6-3.1,4.6-6.8,0-4.4-2.3-7.6-9.5-7.6h-17.7v25.6c0,1.6,1.3,2.9,3,2.9,1.6,0,2.9-1.3,2.9-2.9v-8.6h10c4.3,0,4.9,2.8,4.9,6.8,0,2,.3,3.5,.7,4.2h6.4c-1.1-1.4-1.2-4.5-1.2-5.9Zm-10.6-9.5h-10.2V12.7h10.2c3.1,0,5,1.1,5,4.1,0,3.2-1.7,4.1-5,4.1Z" fill="#fff"></path><path d="M245,30.4c0-4-.7-6.9-4.1-7.6v-.1c2.6-.8,4.6-3.1,4.6-6.8,0-4.4-2.3-7.6-9.5-7.6h-17.8v25.6c0,1.6,1.3,2.9,2.9,2.9s3-1.3,3-2.9v-8.6h10c4.3,0,4.9,2.8,4.9,6.8,0,2,.3,3.5,.7,4.2h6.4c-1.1-1.4-1.1-4.5-1.1-5.9Zm-10.6-9.5h-10.2V12.7h10.2c3.1,0,5,1.1,5,4.1,0,3.2-1.8,4.1-5,4.1Z" fill="#fff"></path></g><g><path d="M80.6,23.6c1.3,0,2.3,1.1,2.5,2.5,0,.2,0,1.6,.1,1.9,.1,1.4,.9,2.7,2.1,3.3,.6,.4,1.3,.6,2,.6h1.6c1.3,0,2.3,1.1,2.5,2.5,0,0,.1,1.9,.2,1.9,.2,2.3,2.1,4,4.3,3.8,1-.1,1.9-.6,2.6-1.3,.7-.8,1.1-2,1-3.1-.2-2.1-1.8-3.7-3.7-3.8l-1.8-.1c-1.3,0-2.4-1.1-2.5-2.4,0-.2-.1-1.7-.1-2-.1-1.1-.6-2.1-1.4-2.9-.6-.6-1.3-.9-2.1-1h-2c-1.3,0-2.4-1.1-2.5-2.4l-.2-2c-.2-2-1.6-3.6-3.5-3.8-.3,0-.6-.1-.8,0-1.9,.1-3.5,1.8-3.6,3.9v2c0,1.4-1,2.6-2.1,2.7-.2,0-1.6,.1-1.8,.1-1.1,.1-2,.6-2.7,1.5-.5,.6-.8,1.4-.9,2.2v2.2c0,1.4-.9,2.6-2.2,2.7l-1.8,.1c-1.8,.1-3.2,1.5-3.5,3.3,0,.3-.1,.9-.1,1v1.8c0,1.4-.9,2.5-2.2,2.6h-1.8c-1.4,.2-2.5,1-3.1,2.2-.4,.7-.6,1.6-.5,2.4v1.4c0,1.4-.9,2.5-2.2,2.6-1,0-3.2,.1-3.2,.1-1.3,0-2.3-1.1-2.5-2.5v-1.9c-.1-1.4-.9-2.7-2.1-3.3-.7-.4-1.5-.6-2.3-.6h-1.3c-1.3,0-2.3-1.1-2.5-2.5l-.1-1.8v-.2c-.2-2.3-2.1-4-4.3-3.8-1,.1-1.9,.5-2.6,1.3s-1.1,2-1,3.1c.2,2.1,1.8,3.7,3.7,3.8l1.9,.1c1.3,0,2.4,1.1,2.5,2.4l.1,1.5v.5c.1,1.1,.6,2.2,1.4,2.9,.6,.6,1.3,.9,2.1,1,.3,0,.5,.1,.8,0h1.2c1.3,0,2.4,1.1,2.5,2.4l.2,2c.2,2,1.6,3.6,3.5,3.8h.9c1.9-.2,3.5-1.8,3.6-3.9v-2c0-1.4,.9-2.6,2.1-2.7,0,0,1.6-.1,1.8-.1,1.1-.1,2-.6,2.7-1.5,.5-.6,.8-1.4,.9-2.2v-2.2c0-1.4,.9-2.6,2.2-2.7h1.4c1.8-.1,3.2-1.5,3.6-3.3q0-.1,.1-.9v-1.9c0-1.4,.9-2.5,2.2-2.6h1.8c1.3-.1,2.5-.9,3.1-2.2,.3-.7,.5-1.5,.5-2.4v-1.4c0-1.4,.9-2.5,2.2-2.6-.1,0,2.4-.1,3.1-.1Z" fill="#e53c30"></path><path d="M56.6,25.9c1.2-.1,2.2-1.3,2.2-2.7v-1.5c-.1-.9,.1-1.7,.5-2.5,.6-1.3,1.8-2.1,3.1-2.2h1.8c1.2-.1,2.2-1.3,2.2-2.7v-2c0-2.2,1.5-4,3.5-4.2,2.1-.2,4,1.6,4.2,4v.9c-.2,2-1.7,3.6-3.5,3.8l-1.8,.1c-1.2,.1-2.1,1.3-2.1,2.7v2.3c-.1,.8-.4,1.6-.9,2.3-.8,.9-1.8,1.4-2.8,1.5-.2,0-1.6,.1-1.8,.1-1.2,.1-2.1,1.3-2.1,2.7v2c-.1,2.1-1.6,3.9-3.5,4h-.9c-1.8-.3-3.3-1.9-3.4-3.9l-.2-2c-.1-1.4-1.2-2.4-2.4-2.5h-2c-.8-.1-1.5-.5-2.1-1.1-.8-.7-1.3-1.8-1.4-2.9,0-.2-.1-1.8-.1-2-.1-1.4-1.2-2.6-2.5-2.6l-1.8-.1c-1.9-.1-3.5-1.8-3.7-3.9-.1-1.2,.3-2.4,1-3.3,.7-.8,1.6-1.3,2.5-1.3h.3c2,0,3.7,1.7,3.9,4,0,.1,.2,2,.2,2,.1,1.5,1.2,2.7,2.5,2.7h1.6c.7,0,1.4,.2,2,.6,1.2,.7,1.9,2,2,3.4,0,.3,.1,1.8,.1,2,.1,1.4,1.1,2.5,2.4,2.5-.1-.1,1.9-.1,3-.2Z" fill="#e53c30"></path><path d="M33.1,25.3c1.3,0,2.6,1.5,2.7,2.9,0,.2,0,1.7,.1,2,.1,1.5,.9,2.7,2.1,3.4,.6,.4,1.3,.6,2,.6h1.6c1.3,0,2.3,1.1,2.4,2.6,0,0,.1,1.9,.2,2,.2,2.3,2.1,4.1,4.2,4,2.1-.2,3.7-2.2,3.5-4.6-.2-2.1-1.8-3.8-3.7-3.9l-1.8-.1c-1.3,0-2.3-1.1-2.4-2.5,0-.2-.1-1.8-.1-2-.1-1.1-.6-2.2-1.4-2.9-.6-.6-1.3-.9-2.1-1-.3,0-.6-.1-.8,0h-1.2c-1.3,0-2.6-1.5-2.8-2.9l-.2-2c-.2-2-1.6-3.7-3.4-3.9h-.8c-1.9,.2-3.4,1.9-3.5,4v2c0,1.5-.9,2.6-2.1,2.7-.2,0-1.6,.1-1.8,.1-1.1,.1-2,.6-2.7,1.5-.5,.6-.8,1.4-.9,2.3v.9c.2,2.3,2.1,4.1,4.2,4,1.3-.1,2.5-1,3.1-2.2,.4-.8,.5-1.6,.5-2.4v-1.5c0-1.4,.9-2.6,2.2-2.7-.3-.3,1.6-.4,2.9-.4Z" fill="#e53c30"></path><path d="M73.7,47.7c1.3,0,2.3,1.1,2.4,2.5v2c.1,1.5,.9,2.7,2,3.4,.6,.4,1.3,.6,2,.6h1.6c1.3,0,2.4,1.2,2.6,2.7,0,0,.2,1.9,.2,2,.2,2.2,1.9,4,3.9,4h.3c1-.1,1.9-.6,2.5-1.3,.7-.9,1.1-2.1,1-3.3-.2-2.1-1.8-3.8-3.7-3.9l-1.8-.1c-1.3,0-2.5-1.2-2.6-2.6,0-.2-.1-1.8-.1-2-.1-1.1-.6-2.2-1.4-2.9-.6-.6-1.3-.9-2.1-1.1h-2c-1.3,0-2.3-1.1-2.4-2.5l-.2-2c-.2-2-1.6-3.7-3.4-3.9h-.9c-1.9,.2-3.4,1.9-3.5,4v2c0,1.5-.9,2.6-2.1,2.7-.2,0-1.6,.1-1.8,.1-1.1,.1-2,.6-2.7,1.5-.5,.6-.8,1.4-.9,2.3v2.3c0,1.5-.9,2.6-2.1,2.7l-1.8,.1c-1.9,.2-3.3,1.7-3.5,3.8v.9c.2,2.3,2.1,4.1,4.2,4,2-.2,3.5-1.9,3.5-4.2v-2c0-1.4,.9-2.6,2.2-2.7h1.8c1.3-.1,2.5-1,3.1-2.2,.4-.8,.5-1.6,.5-2.5v-1.5c0-1.4,.9-2.6,2.2-2.7-.1-.1,.9-.2,3-.2Z" fill="#e53c30"></path><path d="M97.2,48.4c1.3-.1,2.2-1.3,2.2-2.7v-1.5c-.1-.8,.1-1.7,.5-2.4,.6-1.3,1.8-2.1,3.1-2.2,2.1-.2,4,1.6,4.2,3.9v.9c-.1,.8-.4,1.6-.9,2.3-.7,.9-1.6,1.5-2.7,1.5-.2,0-1.6,.1-1.8,.1-1.2,.1-2,1.3-2.1,2.7v2c-.1,2.1-1.6,3.8-3.5,4h-.8c-1.8-.2-3.2-1.9-3.4-3.9l-.2-2c-.1-1.4-1.5-2.8-2.7-2.8h-2c-.8-.1-1.5-.5-2.1-1-.8-.7-1.3-1.8-1.4-2.9,0-.2-.1-1.8-.1-2-.1-1.4-1.1-2.4-2.4-2.5l-1.8-.1c-1.9-.1-3.5-1.8-3.7-3.9-.2-2.3,1.4-4.4,3.5-4.6s4,1.6,4.2,3.9c0,.1,.1,2,.1,2,.1,1.4,1.1,2.5,2.4,2.6h1.6c.7,0,1.4,.2,2,.6,1.1,.7,1.9,2,2,3.4,0,.3,.1,1.8,.1,2,.1,1.4,1.5,2.9,2.7,2.9-.2-.2,2.1-.3,3-.3Z" fill="#e53c30"></path><path d="M11.5,40.5c.2,2.3,2.1,4,4.3,3.8,1.1-.1,2-.6,2.7-1.5,.7-.8,1-1.9,.9-3-.2-2.2-1.9-3.9-4-3.9h-.3c-2.2,.4-3.8,2.4-3.6,4.6Z" fill="#e53c30"></path><path d="M107.8,33.9c.2,2.3,2.1,4,4.3,3.8,1.1-.1,2-.6,2.7-1.5,.7-.8,1-1.9,.9-3-.2-2.2-1.9-3.8-4-3.8h-.3c-2.2,.3-3.8,2.3-3.6,4.5Z" fill="#e53c30"></path></g><path d="M320.4,49c0,1.4-1.1,2.5-2.5,2.5s-2.5-1.1-2.5-2.5,1.1-2.5,2.5-2.5,2.5,1.1,2.5,2.5Zm-4.4,0c0,1.1,.8,2,1.9,2s1.9-.9,1.9-2-.8-2-1.9-2-1.9,.9-1.9,2Zm1.5,1.3h-.6v-2.5c.2,0,.5-.1,.9-.1,.5,0,.7,.1,.9,.2,.1,.1,.2,.3,.2,.5,0,.3-.2,.5-.5,.6h0c.2,.1,.4,.3,.5,.6,.1,.4,.1,.5,.2,.6h-.6c-.1-.1-.1-.3-.2-.6,0-.3-.2-.4-.5-.4h-.3v1.1Zm0-1.4h.3c.3,0,.6-.1,.6-.4,0-.2-.2-.4-.5-.4h-.3v.8h-.1Z" fill="#fff"></path></svg>